<svg width="162" height="40" viewBox="0 0 162 40" fill="none" xmlns="http://www.w3.org/2000/svg">
<path d="M54.3517 15.5371C54.0427 15.1649 53.6582 14.8626 53.2236 14.6501C52.789 14.4376 52.3142 14.3199 51.8307 14.3046C50.953 14.3046 49.8512 14.6033 49.8512 15.7425C49.8512 16.6762 50.6916 16.9937 52.0361 17.4232C53.9035 18.0488 56.4339 18.8798 56.4339 21.737C56.4339 25.033 53.8102 26.5176 51.009 26.5176C50.0341 26.5397 49.0644 26.3687 48.1558 26.0146C47.2472 25.6605 46.4177 25.1301 45.7148 24.4541L47.9558 22.1385C48.3264 22.5956 48.7907 22.968 49.3174 23.2305C49.844 23.493 50.4209 23.6396 51.009 23.6604C52.0548 23.6604 52.9698 23.2589 52.9698 22.1011C52.9698 20.9433 51.8961 20.6632 50.0286 20.0563C48.1612 19.4493 46.4058 18.5343 46.4058 15.9386C46.4058 12.7639 49.2536 11.4474 51.8961 11.4474C53.6139 11.4458 55.2735 12.0698 56.5646 13.2028L54.3517 15.5371Z" fill="#12113D"/>
<path d="M71.2144 26.1534H67.9184L65.9576 19.8695L64.0342 26.1534H60.6915L57.2554 16.0599H60.7942L62.5122 22.4466H62.5776L64.361 16.0599H67.657L69.5244 22.4466L71.2705 16.0599H74.6692L71.2144 26.1534Z" fill="#12113D"/>
<path d="M75.8272 17.4418C77.0402 16.3393 78.6232 15.7327 80.2624 15.7425C83.6051 15.7425 84.8469 17.3951 84.8469 21.0647V26.1534H81.8404V25.0796H81.7843C81.4609 25.5116 81.0363 25.8576 80.5479 26.0872C80.0595 26.3167 79.5222 26.4228 78.9832 26.3962C77.4052 26.3962 75.3604 25.6025 75.3604 23.2309C75.3604 20.3177 78.8618 19.8321 81.7657 19.8321V19.6734C81.7657 18.6743 80.9813 18.2075 79.9636 18.2075C79.0422 18.2369 78.1642 18.606 77.4986 19.2439L75.8272 17.4418ZM81.8404 21.7556H81.4295C79.9916 21.7556 78.3763 21.9424 78.3763 23.1375C78.3763 23.9032 79.1326 24.1646 79.7955 24.1646C80.0733 24.1943 80.3543 24.1612 80.6176 24.0678C80.881 23.9745 81.1201 23.8232 81.3172 23.6252C81.5143 23.4272 81.6645 23.1874 81.7567 22.9237C81.8488 22.6599 81.8806 22.3788 81.8497 22.1011L81.8404 21.7556Z" fill="#12113D"/>
<path d="M91.99 31.0181C90.1598 31.0213 88.372 30.4677 86.8639 29.4308L88.5072 27.0685C89.4206 27.8752 90.594 28.326 91.8126 28.3383C92.1898 28.3762 92.5707 28.3298 92.9278 28.2024C93.2848 28.075 93.6091 27.8698 93.8772 27.6018C94.1453 27.3337 94.3504 27.0094 94.4778 26.6524C94.6052 26.2953 94.6516 25.9144 94.6137 25.5372V24.9303H94.5484C94.1814 25.3688 93.7187 25.7173 93.1958 25.9488C92.6729 26.1803 92.1038 26.2886 91.5325 26.2655C88.5072 26.2655 86.7705 23.8751 86.7705 21.074C86.7705 18.2728 88.5072 15.7892 91.5138 15.7892C92.1323 15.7686 92.7461 15.902 93.3003 16.1775C93.8544 16.4529 94.3314 16.8617 94.6884 17.3671V16.0599H97.7884V25.201C97.8537 29.1507 95.5288 31.0181 91.99 31.0181ZM92.3075 18.4969C91.9824 18.497 91.6609 18.5646 91.3634 18.6956C91.0659 18.8266 90.7989 19.0181 90.5794 19.2578C90.3598 19.4975 90.1926 19.7803 90.0882 20.0881C89.9838 20.396 89.9447 20.7222 89.9732 21.046C89.9528 21.3706 89.9992 21.6959 90.1094 22.0019C90.2196 22.3079 90.3913 22.588 90.614 22.8251C90.8366 23.0621 91.1055 23.2511 91.404 23.3802C91.7025 23.5094 92.0242 23.576 92.3495 23.576C92.6747 23.576 92.9965 23.5094 93.295 23.3802C93.5934 23.2511 93.8623 23.0621 94.085 22.8251C94.3076 22.588 94.4794 22.3079 94.5896 22.0019C94.6998 21.6959 94.7461 21.3706 94.7258 21.046C94.7436 20.7176 94.6942 20.389 94.5806 20.0803C94.4671 19.7717 94.2918 19.4894 94.0654 19.2508C93.839 19.0122 93.5664 18.8223 93.2641 18.6927C92.9619 18.5631 92.6363 18.4965 92.3075 18.4969Z" fill="#12113D"/>
<path d="M107.573 26.5456C106.566 26.5874 105.56 26.4205 104.62 26.0553C103.68 25.6902 102.825 25.1347 102.11 24.4237C101.394 23.7127 100.834 22.8615 100.463 21.9236C100.092 20.9856 99.9187 19.9811 99.9543 18.9732C99.9543 14.3699 103.316 11.4287 107.639 11.4287C108.619 11.3999 109.594 11.5723 110.504 11.9353C111.415 12.2982 112.242 12.844 112.933 13.5389L110.617 15.8919C110.277 15.4648 109.841 15.1233 109.345 14.8947C108.849 14.6661 108.306 14.5567 107.76 14.5753C107.197 14.5765 106.64 14.6934 106.124 14.9189C105.608 15.1444 105.144 15.4735 104.76 15.8859C104.377 16.2984 104.082 16.7852 103.894 17.3163C103.707 17.8474 103.631 18.4114 103.67 18.9732C103.67 21.5876 105.332 23.3616 107.695 23.3616C108.282 23.3786 108.864 23.2523 109.391 22.9936C109.918 22.7349 110.374 22.3516 110.72 21.877L113.092 24.1459C112.409 24.9319 111.559 25.5554 110.604 25.9706C109.649 26.3857 108.614 26.5822 107.573 26.5456Z" fill="#12113D"/>
<path d="M120.945 26.1534V20.6818C120.945 19.5427 120.665 18.5529 119.479 18.5529C118.293 18.5529 117.705 19.4867 117.705 20.7005V26.1534H114.418V10.8404H117.705V17.3765C118.002 16.8664 118.433 16.4478 118.952 16.1662C119.47 15.8846 120.056 15.751 120.646 15.7798C123.354 15.7798 124.287 17.89 124.287 19.9162V26.1534H120.945Z" fill="#12113D"/>
<path d="M126.584 17.4418C127.799 16.3371 129.386 15.7304 131.028 15.7425C134.371 15.7425 135.604 17.3951 135.604 21.0647V26.1534H132.606V25.0796H132.55C132.227 25.5116 131.802 25.8576 131.314 26.0872C130.826 26.3167 130.288 26.4228 129.749 26.3962C128.162 26.3962 126.126 25.6025 126.126 23.2309C126.126 20.3177 129.628 19.8321 132.522 19.8321V19.6734C132.522 18.6743 131.747 18.2075 130.72 18.2075C129.802 18.2392 128.928 18.6082 128.265 19.2439L126.584 17.4418ZM132.606 21.7556H132.186C130.748 21.7556 129.124 21.9424 129.124 23.1375C129.124 23.9032 129.889 24.1646 130.543 24.1646C130.822 24.1958 131.104 24.1638 131.368 24.0712C131.633 23.9785 131.873 23.8274 132.071 23.6292C132.269 23.431 132.42 23.1907 132.513 22.9262C132.606 22.6617 132.638 22.3796 132.606 22.1011V21.7556Z" fill="#12113D"/>
<path d="M144.512 18.7771C144.238 18.7038 143.955 18.6692 143.671 18.6744C143.367 18.6644 143.064 18.7157 142.78 18.8252C142.496 18.9347 142.237 19.1003 142.018 19.312C141.8 19.5236 141.626 19.7772 141.507 20.0574C141.389 20.3377 141.327 20.639 141.328 20.9433V26.1348H138.05V16.06H141.188V17.5259C141.431 16.9919 141.827 16.5415 142.325 16.231C142.823 15.9205 143.402 15.7636 143.989 15.7799C144.225 15.7691 144.462 15.7975 144.689 15.8639L144.512 18.7771Z" fill="#12113D"/>
<path d="M158.695 26.1534V20.6445C158.695 19.4867 158.443 18.5156 157.276 18.5156C156.108 18.5156 155.613 19.5707 155.613 20.7005V26.1534H152.336V20.4017C152.336 19.2439 151.897 18.5343 150.917 18.5343C149.936 18.5343 149.274 19.468 149.274 20.7005V26.1721H145.978V16.0599H149.152V17.4605H149.199C149.496 16.9361 149.93 16.5025 150.455 16.2064C150.979 15.9102 151.575 15.7628 152.177 15.7798C152.794 15.7364 153.409 15.8764 153.946 16.1822C154.482 16.4879 154.916 16.9457 155.193 17.4979C155.523 16.9536 155.991 16.5073 156.551 16.2052C157.111 15.9031 157.742 15.7562 158.377 15.7798C161.076 15.7798 162 18.0114 162 19.9162V26.1534H158.695Z" fill="#12113D"/>
<path d="M25.7053 4.92068L25.6773 16.312L17.4886 21.2981V28.5904L8.2168 34.2301V15.5744L17.4886 9.84138L25.7053 4.92068Z" fill="#009DC8"/>
<path d="M35.1732 10.6537L25.6772 16.312L25.7053 4.92068L35.1732 10.6537Z" fill="#00598B"/>
<path d="M35.1734 10.6537V28.9452L17.4888 39.683V21.2981L25.6775 16.312L35.1734 10.6537Z" fill="#77CFE7"/>
<path d="M8.413 15.5931V34.2488L0.196289 29.3281V10.6724L8.413 15.5931Z" fill="#00598B"/>
<path d="M17.4885 0V9.84138L8.21672 15.5744L0 10.6537L17.4885 0Z" fill="#77CFE7"/>
</svg>
